<?xml version="1.0" encoding="utf-8"?>
<!-- Generator: Adobe Illustrator 23.0.3, SVG Export Plug-In . SVG Version: 6.00 Build 0)  -->
<svg version="1.1" id="Layer_1" xmlns="http://www.w3.org/2000/svg" xmlns:xlink="http://www.w3.org/1999/xlink" x="0px" y="0px"
	 viewBox="0 0 75 130" style="enable-background:new 0 0 75 130;" xml:space="preserve">
<style type="text/css">
	.st0{fill:#F0F5F7;}
</style>
<g>
	<g>
		<polygon class="st0" points="48.84,52.81 22.82,26.79 48.84,0.78 74.81,26.75 		"/>
		<rect x="0.45" y="0.12" class="st0" width="13.78" height="53.35"/>
	</g>
	<path class="st0" d="M33.01,81.36V70.75h2.61v4.61l3.96-4.61h3.11l-4.64,4.99l4.91,5.62h-3.41l-3.93-4.82v4.82H33.01z"/>
	<path class="st0" d="M16.58,97.2V86.59h2.61V97.2H16.58z"/>
	<path class="st0" d="M29.68,94.58l-3.41-4.64v7.26h-2.39V86.59h3.27l2.56,3.62l2.55-3.62h3.27V97.2h-2.46V90L29.68,94.58z"/>
	<path class="st0" d="M38.66,97.2l4.14-10.61h2.97l4.08,10.61h-2.82l-0.88-2.53h-3.88l-0.89,2.53H38.66z M42.98,92.65h2.47
		l-1.23-3.52L42.98,92.65z"/>
	<path class="st0" d="M62.06,91.85c0,0.79-0.13,1.52-0.39,2.2c-0.26,0.68-0.63,1.26-1.09,1.75c-0.47,0.49-1.02,0.87-1.68,1.15
		c-0.65,0.28-1.36,0.42-2.11,0.42c-0.78,0-1.51-0.14-2.19-0.42c-0.68-0.28-1.27-0.67-1.77-1.16c-0.5-0.49-0.89-1.07-1.18-1.74
		c-0.29-0.67-0.43-1.38-0.43-2.15c0-0.77,0.14-1.49,0.43-2.15c0.29-0.67,0.68-1.24,1.17-1.74c0.5-0.49,1.08-0.88,1.76-1.16
		c0.68-0.28,1.4-0.42,2.17-0.42c0.88,0,1.72,0.18,2.52,0.54c0.8,0.36,1.45,0.87,1.94,1.52l-1.83,1.59c-0.33-0.45-0.73-0.78-1.17-1
		c-0.45-0.22-0.93-0.33-1.45-0.33c-0.4,0-0.78,0.08-1.13,0.24c-0.35,0.16-0.65,0.38-0.9,0.66c-0.25,0.28-0.45,0.61-0.59,1
		c-0.14,0.39-0.21,0.81-0.21,1.25c0,0.46,0.07,0.88,0.22,1.27c0.15,0.39,0.35,0.73,0.61,1.01c0.26,0.28,0.57,0.51,0.93,0.67
		c0.36,0.16,0.75,0.24,1.16,0.24c0.6,0,1.11-0.17,1.55-0.5c0.44-0.33,0.73-0.76,0.87-1.27h-2.65v-2.2h5.46V91.85z"/>
	<path class="st0" d="M0.3,112.96v-10.61h2.61v10.61H0.3z"/>
	<path class="st0" d="M7.01,102.51h2.46l4.71,6.43l-0.05-6.43h2.46v10.61h-2.3l-4.86-6.64l0.05,6.64H7.01V102.51z"/>
	<path class="st0" d="M19.44,113.12l4.14-10.61h2.97l4.08,10.61h-2.82l-0.88-2.53h-3.88l-0.89,2.53H19.44z M23.76,108.58h2.47
		L25,105.06L23.76,108.58z"/>
	<path class="st0" d="M32.87,104.74v-2.23h6.89v2.23h-2.1v8.38h-2.61v-8.38H32.87z"/>
	<path class="st0" d="M44.26,113.12v-10.61h2.61v10.61H44.26z"/>
	<path class="st0" d="M62.17,107.65c0,0.76-0.14,1.47-0.42,2.15c-0.28,0.67-0.67,1.25-1.16,1.74c-0.49,0.49-1.07,0.88-1.74,1.16
		c-0.67,0.28-1.38,0.42-2.15,0.42c-0.77,0-1.49-0.14-2.16-0.42c-0.67-0.28-1.25-0.67-1.74-1.16c-0.49-0.49-0.88-1.07-1.16-1.74
		s-0.42-1.39-0.42-2.15c0-0.76,0.14-1.47,0.42-2.15c0.28-0.67,0.67-1.25,1.16-1.74c0.49-0.49,1.07-0.88,1.74-1.16
		c0.67-0.28,1.39-0.42,2.16-0.42c0.77,0,1.49,0.14,2.15,0.42c0.67,0.28,1.25,0.67,1.74,1.16c0.49,0.49,0.88,1.07,1.16,1.74
		C62.03,106.18,62.17,106.9,62.17,107.65z M59.47,107.65c0-0.44-0.07-0.86-0.21-1.25c-0.14-0.39-0.34-0.72-0.58-1
		c-0.25-0.28-0.54-0.5-0.89-0.66c-0.34-0.16-0.71-0.24-1.11-0.24c-0.39,0-0.76,0.08-1.11,0.24c-0.34,0.16-0.64,0.38-0.89,0.66
		c-0.25,0.28-0.44,0.61-0.58,1c-0.14,0.39-0.21,0.81-0.21,1.25c0,0.45,0.07,0.86,0.21,1.25c0.14,0.39,0.34,0.72,0.58,1
		c0.25,0.28,0.54,0.5,0.89,0.66c0.34,0.16,0.71,0.24,1.11,0.24c0.39,0,0.76-0.08,1.11-0.24c0.34-0.16,0.64-0.38,0.89-0.66
		c0.25-0.28,0.44-0.61,0.58-1C59.4,108.52,59.47,108.1,59.47,107.65z"/>
	<path class="st0" d="M65.21,102.35h2.46l4.71,6.43l-0.04-6.43h2.45v10.61h-2.3l-4.86-6.64l0.05,6.64h-2.46V102.35z"/>
	<g>
		<path class="st0" d="M15.79,124.85h2.26c0.48,0,0.87,0.12,1.16,0.37c0.29,0.25,0.44,0.57,0.44,0.96c0,0.25-0.07,0.48-0.22,0.67
			c-0.15,0.2-0.34,0.35-0.59,0.45c0.3,0.09,0.54,0.24,0.72,0.46c0.18,0.21,0.27,0.46,0.27,0.75c0,0.42-0.15,0.76-0.46,1.02
			c-0.31,0.26-0.71,0.39-1.21,0.39h-2.36V124.85z M17.96,125.56h-1.3v1.42h1.3c0.25,0,0.44-0.06,0.59-0.19
			c0.15-0.13,0.22-0.3,0.22-0.52c0-0.22-0.07-0.39-0.22-0.52C18.4,125.63,18.2,125.56,17.96,125.56z M18.04,129.22
			c0.27,0,0.49-0.07,0.65-0.21c0.16-0.14,0.25-0.33,0.25-0.57c0-0.24-0.08-0.43-0.25-0.57c-0.16-0.14-0.38-0.21-0.65-0.21h-1.39
			v1.56H18.04z"/>
		<path class="st0" d="M28.14,127.75c0,0.34-0.05,0.65-0.15,0.93c-0.1,0.28-0.24,0.51-0.43,0.71c-0.18,0.19-0.41,0.34-0.67,0.45
			C26.62,129.95,26.32,130,26,130c-0.65,0-1.17-0.2-1.55-0.61c-0.39-0.4-0.58-0.95-0.58-1.64v-2.9h0.87v2.9
			c0,0.44,0.12,0.8,0.35,1.07c0.23,0.27,0.54,0.4,0.92,0.4c0.38,0,0.69-0.13,0.92-0.4c0.23-0.27,0.34-0.62,0.34-1.07v-2.9h0.87
			V127.75z"/>
		<path class="st0" d="M32.19,129.93v-5.08h2.26c0.5,0,0.91,0.14,1.22,0.43c0.32,0.29,0.48,0.66,0.48,1.11
			c0,0.33-0.09,0.62-0.27,0.86c-0.18,0.25-0.42,0.42-0.73,0.53l1.07,2.15h-0.96l-0.98-2.03h-1.2v2.03H32.19z M34.37,125.58h-1.31
			v1.62h1.31c0.27,0,0.48-0.07,0.65-0.22c0.16-0.15,0.25-0.34,0.25-0.58c0-0.24-0.08-0.44-0.25-0.59
			C34.85,125.66,34.64,125.58,34.37,125.58z"/>
		<path class="st0" d="M40.57,129.93v-5.08h3.63v0.74h-2.76V127h1.93v0.73h-1.93v1.46h2.79v0.74H40.57z"/>
		<path class="st0" d="M48.11,129.93l1.99-5.08h1.01l1.97,5.08h-0.94l-0.51-1.42h-2.09l-0.52,1.42H48.11z M49.79,127.82h1.58
			l-0.78-2.16L49.79,127.82z"/>
		<path class="st0" d="M60.93,127.75c0,0.34-0.05,0.65-0.15,0.93s-0.24,0.51-0.43,0.71c-0.18,0.19-0.41,0.34-0.67,0.45
			c-0.27,0.11-0.56,0.16-0.88,0.16c-0.65,0-1.17-0.2-1.55-0.61c-0.39-0.4-0.58-0.95-0.58-1.64v-2.9h0.87v2.9
			c0,0.44,0.12,0.8,0.35,1.07c0.23,0.27,0.54,0.4,0.92,0.4c0.38,0,0.69-0.13,0.92-0.4c0.23-0.27,0.34-0.62,0.34-1.07v-2.9h0.87
			V127.75z"/>
	</g>
</g>
</svg>
