<?xml version="1.0" encoding="utf-8"?>
<!-- Generator: Adobe Illustrator 23.0.3, SVG Export Plug-In . SVG Version: 6.00 Build 0)  -->
<svg version="1.1" id="Layer_1" xmlns="http://www.w3.org/2000/svg" xmlns:xlink="http://www.w3.org/1999/xlink" x="0px" y="0px"
	 viewBox="0 0 50.92 44.37" style="enable-background:new 0 0 50.92 44.37;" xml:space="preserve">
<style type="text/css">
	.st0{fill:none;stroke:#F0F5F7;stroke-width:1.5;stroke-miterlimit:10;}
</style>
<path class="st0" d="M34.68,10.8H6.68c-2.38,0-4.31-1.93-4.31-4.31V6.25c0-2.38,1.93-4.31,4.31-4.31h28.01
	c2.38,0,4.31,1.93,4.31,4.31v0.24C38.99,8.87,37.06,10.8,34.68,10.8z"/>
<path class="st0" d="M45.31,26.93H17.31c-2.38,0-4.31-1.93-4.31-4.31v-0.24c0-2.38,1.93-4.31,4.31-4.31h28.01
	c2.38,0,4.31,1.93,4.31,4.31v0.24C49.62,25.01,47.69,26.93,45.31,26.93z"/>
<path class="st0" d="M34.68,42.43H6.68c-2.38,0-4.31-1.93-4.31-4.31v-0.24c0-2.38,1.93-4.31,4.31-4.31h28.01
	c2.38,0,4.31,1.93,4.31,4.31v0.24C38.99,40.5,37.06,42.43,34.68,42.43z"/>
</svg>
